<svg xmlns="http://www.w3.org/2000/svg" viewBox="0 0 200 200" width="200" height="200">
  <!-- Cat face (circle) -->
  <circle cx="100" cy="110" r="60" fill="#ffa500" stroke="#333" stroke-width="3"/>
  
  <!-- Cat ears -->
  <polygon points="60,70 80,40 90,70" fill="#ffa500" stroke="#333" stroke-width="3"/>
  <polygon points="110,70 120,40 140,70" fill="#ffa500" stroke="#333" stroke-width="3"/>
  
  <!-- Inner ears -->
  <polygon points="65,65 75,50 80,65" fill="#ff69b4"/>
  <polygon points="115,65 120,50 130,65" fill="#ff69b4"/>
  
  <!-- Eyes -->
  <ellipse cx="85" cy="100" rx="8" ry="12" fill="#000"/>
  <ellipse cx="115" cy="100" rx="8" ry="12" fill="#000"/>
  
  <!-- Eye highlights -->
  <ellipse cx="87" cy="96" rx="2" ry="3" fill="#fff"/>
  <ellipse cx="117" cy="96" rx="2" ry="3" fill="#fff"/>
  
  <!-- Nose -->
  <polygon points="100,115 95,125 105,125" fill="#ff69b4"/>
  
  <!-- Mouth -->
  <path d="M 100 128 Q 90 135 85 140" stroke="#333" stroke-width="2" fill="none"/>
  <path d="M 100 128 Q 110 135 115 140" stroke="#333" stroke-width="2" fill="none"/>
  
  <!-- Whiskers -->
  <line x1="55" y1="110" x2="75" y2="115" stroke="#333" stroke-width="2"/>
  <line x1="55" y1="120" x2="75" y2="120" stroke="#333" stroke-width="2"/>
  <line x1="55" y1="130" x2="75" y2="125" stroke="#333" stroke-width="2"/>
  
  <line x1="125" y1="115" x2="145" y2="110" stroke="#333" stroke-width="2"/>
  <line x1="125" y1="120" x2="145" y2="120" stroke="#333" stroke-width="2"/>
  <line x1="125" y1="125" x2="145" y2="130" stroke="#333" stroke-width="2"/>
</svg>